<svg xmlns="http://www.w3.org/2000/svg" xmlns:xlink="http://www.w3.org/1999/xlink" version="1.1" x="0px" y="0px" viewBox="0 0 100 125" enable-background="new 0 0 100 100" xml:space="preserve"><path d="M30.864,32.218c0.883,0,1.691,0.59,1.933,1.483l10.36,38.67c0.291,1.068-0.344,2.166-1.41,2.456  c-0.172,0.042-0.344,0.067-0.515,0.067c-0.888,0-1.694-0.592-1.938-1.49l-10.36-38.668c-0.291-1.065,0.342-2.164,1.412-2.451  C30.52,32.24,30.692,32.218,30.864,32.218 M30.864,31.27c-0.258,0-0.512,0.031-0.765,0.1c-1.569,0.426-2.505,2.043-2.082,3.613  l10.364,38.665c0.348,1.294,1.521,2.191,2.851,2.191c0.253,0,0.509-0.03,0.76-0.099c1.573-0.426,2.505-2.049,2.079-3.616  L33.713,33.457C33.364,32.168,32.192,31.27,30.864,31.27L30.864,31.27z"/><path d="M65.532,26.05c0.734,2.74,1.348,5.023,1.918,7.155c0.568,2.133,1.103,4.113,1.676,6.24c0.568,2.135,1.182,4.414,1.908,7.161  c-1.987,2.116-4.049,3.017-6.064,3.526c-1.811,0.453-3.601,0.559-5.359,0.559c-0.197,0-0.395,0-0.589,0  c-1.953-0.027-3.885-0.154-5.838-0.179c-0.161,0-0.318,0-0.479,0c-1.796,0-3.616,0.099-5.462,0.562  c-2.021,0.506-4.082,1.41-6.072,3.529c-0.734-2.736-1.346-5.022-1.918-7.155c-0.574-2.132-1.1-4.106-1.674-6.239  c-0.567-2.133-1.184-4.416-1.916-7.152c1.99-2.125,4.055-3.026,6.069-3.532c1.802-0.454,3.573-0.556,5.319-0.556  c0.211,0,0.42,0,0.63,0.006c1.95,0.019,3.882,0.143,5.831,0.16c0.217,0.006,0.43,0.006,0.643,0.006c1.746,0,3.506-0.104,5.307-0.558  C61.474,29.08,63.542,28.173,65.532,26.05 M66.007,24.161l-1.166,1.241c-2.02,2.15-4.058,2.872-5.609,3.261  c-1.864,0.47-3.694,0.528-5.076,0.528h-0.63c-0.976-0.013-1.947-0.05-2.915-0.083c-0.973-0.037-1.941-0.072-2.92-0.085l-0.639-0.002  c-1.506,0-3.492,0.064-5.547,0.584c-1.667,0.416-4.154,1.264-6.533,3.804l-0.36,0.386l0.136,0.506l0.981,3.66l0.935,3.492  l0.738,2.746l0.938,3.496l1.184,4.416l0.735,2.739l0.438,1.647l1.166-1.246c1.577-1.678,3.309-2.686,5.609-3.258  c1.876-0.469,3.697-0.533,5.233-0.533l0.47,0.002c0.986,0.01,1.975,0.049,2.955,0.086c0.957,0.037,1.916,0.074,2.879,0.086  l0.602,0.006c1.506,0,3.505-0.066,5.592-0.588c1.663-0.42,4.146-1.268,6.521-3.799l0.361-0.383l-0.133-0.506l-1.205-4.523  L70.04,39.2l-0.266-0.981l-1.407-5.258l-1.062-3.962l-0.857-3.193L66.007,24.161L66.007,24.161z"/><text x="0" y="115" fill="#000000" font-size="5px" font-weight="bold" font-family="'Helvetica Neue', Helvetica, Arial-Unicode, Arial, Sans-serif">Created by Alexander Smith</text><text x="0" y="120" fill="#000000" font-size="5px" font-weight="bold" font-family="'Helvetica Neue', Helvetica, Arial-Unicode, Arial, Sans-serif">from the Noun Project</text></svg>