<svg xmlns="http://www.w3.org/2000/svg" xmlns:xlink="http://www.w3.org/1999/xlink" version="1.1" x="0px" y="0px" viewBox="0 0 48 60" enable-background="new 0 0 48 48" xml:space="preserve"><g><path fill="#000000" d="M36.1,11.2c0.2-0.2,0.2-0.6,0-0.9l-3.9-3.9c-0.2-0.2-0.6-0.2-0.9,0l-1.5,1.5c-0.1,0.1-0.4,0.1-0.5,0   l-0.7-0.7c-0.1-0.1-0.1-0.3-0.1-0.4c0.6-1.2,0.8-2.4,0.5-3.2c-0.1-0.2-0.1-0.3-0.3-0.5l-2.3-2.3c-0.5-0.5-1.2-0.5-1.7,0L16.7,9   c-0.5,0.5-0.5,1.2,0,1.7l2.3,2.3c0.1,0.1,0.3,0.2,0.5,0.3c0.7,0.3,1.8,0.1,2.9-0.4c0.1-0.1,0.3,0,0.4,0.1l0.7,0.7   c0.1,0.1,0.1,0.4,0,0.5l-1.4,1.4c-0.2,0.2-0.2,0.6,0,0.9l0.7,0.7L1.4,37.6c-1,1-1.2,2.6-0.2,3.6c1,1.1,2.7,1.1,3.7,0l20.5-21.6   l0.7,0.7c0.2,0.2,0.6,0.2,0.9,0l1.4-1.4c0.1-0.1,0.4-0.1,0.5,0l0.7,0.7c0.1,0.1,0.1,0.3,0.1,0.4c-0.5,1.2-0.7,2.2-0.4,2.9   c0.1,0.2,0.1,0.3,0.3,0.5l2.3,2.3c0.5,0.5,1.2,0.5,1.7,0l8.1-8.1c0.5-0.5,0.5-1.2,0-1.7l-2.3-2.3c-0.1-0.1-0.3-0.2-0.5-0.3   c-0.8-0.3-1.9-0.1-3.2,0.5c-0.1,0.1-0.3,0-0.4-0.1l-0.7-0.7c-0.1-0.1-0.1-0.4,0-0.5L36.1,11.2z"/><path fill="#000000" d="M47.5,41.9c0-0.9-1.2-1.8-3.2-2.4c-0.2-0.1-0.4-0.3-0.4-0.5v-0.6c0-0.3-0.2-0.5-0.5-0.5H30.6   c-0.3,0-0.5,0.2-0.5,0.5v0.6c0,0.2-0.2,0.4-0.4,0.5c-1.9,0.6-3.2,1.5-3.2,2.4h0v4.4c0,0.7,0.6,1.3,1.3,1.3h18.4   c0.7,0,1.3-0.6,1.3-1.3V41.9L47.5,41.9z"/></g><!--text x="0" y="63" fill="#000000" font-size="5px" font-weight="bold" font-family="'Helvetica Neue', Helvetica, Arial-Unicode, Arial, Sans-serif">Created by Creative Stall</text><text x="0" y="68" fill="#000000" font-size="5px" font-weight="bold" font-family="'Helvetica Neue', Helvetica, Arial-Unicode, Arial, Sans-serif">from the Noun Project</text--></svg>