<svg xmlns="http://www.w3.org/2000/svg" xmlns:xlink="http://www.w3.org/1999/xlink" version="1.1" x="0px" y="0px" viewBox="0 0 100 125" enable-background="new 0 0 100 100" xml:space="preserve"><path fill-rule="evenodd" clip-rule="evenodd" d="M82.498,93.944v1.298c0,0.126-0.103,0.228-0.228,0.228H24.803  c-4.217,0-7.291-2.979-7.291-7.206v-0.045c-0.105-25.105,0.003-50.237,0.005-75.346c0-3.698,2.801-6.771,6.386-7.207  c0.119-0.015,0.221-0.021,0.34-0.021L82.306,5.61c0.126,0,0.228,0.102,0.228,0.227v69.998v2.931c0,0.126-0.102,0.228-0.228,0.228  H33.855V89.31l-3.493-1.184l-3.483,1.184v-2.415h-0.002v-1.137h0.002v-3.57h-0.002v-1.136h0.002v-2.059  c-1.971,0-3.768,0.785-5.093,2.059h2.848v1.136H20.82c-0.714,1.033-1.172,2.255-1.279,3.57h5.093v1.137h-5.097  c0.096,1.314,0.541,2.535,1.243,3.57h61.075c0.313,0,0.567,0.254,0.567,0.567s-0.255,0.568-0.567,0.568H21.726  c1.331,1.308,3.152,2.117,5.153,2.117h55.392C82.396,93.718,82.498,93.82,82.498,93.944L82.498,93.944z M42.587,50.253h-0.416  c0-0.032-0.005-0.064-0.017-0.095L34.67,29.334c0.915-0.203,1.839-0.61,2.804-1.08c0.252-0.123,0.507-0.25,0.766-0.379  c2.741-1.366,5.912-2.944,9.903-1.054c0.303,0.143,0.61,0.306,0.922,0.491c0.09,0.053,0.188,0.084,0.285,0.095v2.022h-0.554v19.574  h-0.489v8.855c-1.853,0.262-3.463,0.95-4.582,1.899h-2.061v1.957h-0.838v1.539h17.966v-1.539h-0.559v-1.957h-1.991  c-1.146-0.973-2.81-1.671-4.721-1.919v-8.836h-0.629V29.429H50.33v-2.024c0.049-0.016,0.097-0.037,0.143-0.064  c0.383-0.227,0.758-0.42,1.127-0.585c3.896-1.742,7.004-0.194,9.698,1.148c0.207,0.103,0.411,0.205,0.613,0.304  c1.131,0.555,2.202,1.036,3.268,1.216l-7.501,20.868c-0.011,0.032-0.017,0.063-0.017,0.095h-0.483  c0.864,1.358,2.772,2.307,4.974,2.307h7.315c2.201,0,4.109-0.948,4.974-2.307h-0.483c0-0.032-0.005-0.063-0.017-0.095l-7.48-20.812  c0.306-0.028,0.613-0.088,0.923-0.186c0.373-0.118,0.58-0.517,0.463-0.891c-0.118-0.373-0.517-0.581-0.89-0.463  c-1.47,0.464-3.146-0.371-5.026-1.308c-3.142-1.565-6.793-3.384-11.601-0.836v-2.647h-0.979v2.695  c-4.878-2.66-8.57-0.82-11.743,0.76c-1.88,0.937-3.556,1.772-5.025,1.308c-0.374-0.118-0.772,0.089-0.89,0.463  c-0.118,0.374,0.089,0.772,0.463,0.89c0.394,0.124,0.784,0.188,1.174,0.201l-7.437,20.69c-0.011,0.031-0.016,0.063-0.016,0.095  h-0.318c0.852,1.357,2.734,2.307,4.906,2.307h7.216C39.853,52.56,41.735,51.61,42.587,50.253L42.587,50.253z M73.375,50.387  l-7.28-20.255v20.255H73.375L73.375,50.387z M65.525,50.387v-0.002V30.132l-7.26,20.2l-0.02,0.055H65.525L65.525,50.387z   M34.308,29.998v20.255h7.28L34.308,29.998L34.308,29.998z M26.46,50.253h7.28V50.25V29.998l-7.261,20.201L26.46,50.253  L26.46,50.253z M36.07,81.052v1.136h45.784c0.313,0,0.567-0.254,0.567-0.567s-0.255-0.568-0.567-0.568H36.07L36.07,81.052z   M36.07,85.758v1.137h45.784c0.313,0,0.567-0.254,0.567-0.568c0-0.313-0.255-0.568-0.567-0.568H36.07z"/><!--text x="0" y="115" fill="#000000" font-size="5px" font-weight="bold" font-family="'Helvetica Neue', Helvetica, Arial-Unicode, Arial, Sans-serif">Created by Nikita Kozin</text><text x="0" y="120" fill="#000000" font-size="5px" font-weight="bold" font-family="'Helvetica Neue', Helvetica, Arial-Unicode, Arial, Sans-serif">from the Noun Project</text--></svg>