<svg xmlns="http://www.w3.org/2000/svg" xmlns:xlink="http://www.w3.org/1999/xlink" version="1.1" x="0px" y="0px" viewBox="0 0 48 60" enable-background="new 0 0 48 48" xml:space="preserve"><g><g><path d="M9.369,34.032H0.543c-0.138,0-0.249,0.111-0.249,0.248v13.471c0,0.138,0.111,0.248,0.249,0.248h8.826    c0.138,0,0.249-0.11,0.249-0.248V34.28C9.618,34.144,9.506,34.032,9.369,34.032z"/><path d="M22.065,18.395h-8.826c-0.137,0-0.249,0.111-0.249,0.249v29.108c0,0.138,0.111,0.248,0.249,0.248h8.826    c0.137,0,0.249-0.11,0.249-0.248V18.643C22.314,18.506,22.203,18.395,22.065,18.395z"/><path d="M34.761,27.839h-8.825c-0.137,0-0.248,0.111-0.248,0.248v19.664c0,0.138,0.111,0.248,0.248,0.248h8.825    c0.138,0,0.249-0.11,0.249-0.248V28.087C35.01,27.95,34.898,27.839,34.761,27.839z"/><path d="M47.457,9.724h-8.826c-0.137,0-0.248,0.111-0.248,0.249v37.779c0,0.138,0.111,0.248,0.248,0.248h8.826    c0.138,0,0.248-0.11,0.248-0.248V9.972C47.705,9.834,47.595,9.724,47.457,9.724z"/></g><path d="M37.6,0.882c-0.03-0.267-0.168-0.51-0.38-0.674c-0.214-0.164-0.481-0.237-0.749-0.197l-6.48,0.926   c-0.544,0.078-0.922,0.581-0.844,1.125c0.078,0.544,0.587,0.923,1.125,0.844l4.119-0.589l-8.512,8.904L13.84,5.201   c-0.366-0.183-0.808-0.123-1.111,0.151L1.58,15.417c-0.408,0.368-0.44,0.997-0.072,1.405c0.196,0.217,0.467,0.328,0.739,0.328   c0.237,0,0.476-0.084,0.666-0.256l10.645-9.609l12.089,6.045c0.39,0.194,0.863,0.112,1.164-0.203l9.098-9.518L36.296,7   c0.059,0.507,0.488,0.881,0.987,0.881c0.038,0,0.076-0.002,0.115-0.006c0.545-0.063,0.938-0.556,0.875-1.102L37.6,0.882z"/></g><!--text x="0" y="63" fill="#000000" font-size="5px" font-weight="bold" font-family="'Helvetica Neue', Helvetica, Arial-Unicode, Arial, Sans-serif">Created by Creative Stall</text><text x="0" y="68" fill="#000000" font-size="5px" font-weight="bold" font-family="'Helvetica Neue', Helvetica, Arial-Unicode, Arial, Sans-serif">from the Noun Project</text--></svg>