<svg xmlns="http://www.w3.org/2000/svg" xmlns:xlink="http://www.w3.org/1999/xlink" version="1.1" x="0px" y="0px" viewBox="0 0 72 90" enable-background="new 0 0 72 72" xml:space="preserve"><g><path fill="#000000" d="M71.3,32.9L61,11.9c-0.1-0.2,0.1-0.5,0.3-0.5h1.8c1,0,1.8-0.9,1.6-1.9c-0.1-0.8-0.9-1.4-1.7-1.4H38.5   c-0.6,0-1.1-0.5-1.1-1.1V2.9c0-0.8-0.6-1.6-1.4-1.7c-1-0.2-1.9,0.6-1.9,1.6v4.3c0,0.6-0.5,1.1-1.1,1.1h-4.5H8.9H8.5   c-0.8,0-1.6,0.6-1.7,1.4c-0.2,1,0.6,1.9,1.6,1.9h0.4h1.8c0.3,0,0.4,0.3,0.3,0.5L0.7,32.9c-0.2,0.5-0.2,1,0,1.4   c0.4,6.8,6.1,12.2,13,12.2c6.9,0,12.6-5.4,13-12.2c0.2-0.4,0.2-0.9,0-1.4L16.3,11.9c-0.1-0.2,0.1-0.5,0.3-0.5h12h4.5   c0.6,0,1.1,0.5,1.1,1.1v43.8c0,0.6-0.5,1.2-1.2,1.2h-4.4c-1.4,0-2.5,1.1-2.5,2.5v1.5c0,0.7-0.6,1.3-1.3,1.3H12   c-0.7,0-1.3,0.6-1.3,1.3v5.5c0,0.7,0.6,1.3,1.3,1.3h48c0.7,0,1.3-0.6,1.3-1.3v-5.5c0-0.7-0.6-1.3-1.3-1.3H46.8   c-0.7,0-1.3-0.6-1.3-1.3V60c0-1.4-1.1-2.5-2.5-2.5h-4.4c-0.6,0-1.2-0.5-1.2-1.2V12.5c0-0.6,0.5-1.1,1.1-1.1h16.9   c0.3,0,0.4,0.3,0.3,0.5L45.4,32.9c-0.2,0.5-0.2,1,0,1.4c0.4,6.8,6.1,12.2,13,12.2c6.9,0,12.6-5.4,13-12.2   C71.5,33.8,71.6,33.3,71.3,32.9z M12,32.6c0,0.4-0.4,0.8-0.8,0.8H5.3c-0.6,0-1-0.6-0.7-1.1l6.8-13.9c0.1-0.3,0.6-0.2,0.6,0.1V32.6z    M22.7,32.3c0.3,0.5-0.1,1.1-0.7,1.1h-5.9c-0.4,0-0.8-0.4-0.8-0.8V18.5c0-0.3,0.4-0.4,0.6-0.1L22.7,32.3z M56.7,32.6   c0,0.4-0.4,0.8-0.8,0.8H50c-0.6,0-1-0.6-0.7-1.1l6.8-13.9c0.1-0.3,0.6-0.2,0.6,0.1V32.6z M66.7,33.4h-5.9c-0.4,0-0.8-0.4-0.8-0.8   V18.5c0-0.3,0.4-0.4,0.6-0.1l6.8,13.9C67.7,32.8,67.3,33.4,66.7,33.4z"/></g><!--text x="0" y="87" fill="#000000" font-size="5px" font-weight="bold" font-family="'Helvetica Neue', Helvetica, Arial-Unicode, Arial, Sans-serif">Created by Creative Stall</text><text x="0" y="92" fill="#000000" font-size="5px" font-weight="bold" font-family="'Helvetica Neue', Helvetica, Arial-Unicode, Arial, Sans-serif">from the Noun Project</text--></svg>