<svg xmlns="http://www.w3.org/2000/svg" xmlns:xlink="http://www.w3.org/1999/xlink" version="1.1" x="0px" y="0px" viewBox="0 0 100 125" enable-background="new 0 0 100 100" xml:space="preserve"><g><g><path d="M77.313,20.937c-2.51-0.195-5.222-0.33-7.921-0.33c-10.041,0-16.38,1.818-18.895,5.409    c-2.514-3.591-8.853-5.409-18.895-5.409c-2.699,0-5.411,0.135-7.921,0.33v-0.009c-0.116,0.013-0.238,0.02-0.363,0.021    c-0.199,0.035-0.405,0.06-0.628,0.06c-0.023,0-0.045-0.002-0.068-0.004c-0.21,0.037-0.43,0.06-0.665,0.06    c-0.07,0-0.137-0.006-0.204-0.01c-0.136,0.025-0.277,0.042-0.422,0.053c-0.154,0.03-0.316,0.048-0.484,0.058v0.022    c-5.092,0.505-8.808,1.158-8.868,1.169l-0.326,0.058l-0.9,1.116H3.995V83l0.94-0.059c0.153-0.01,15.427-0.967,21.411-1.633    l0.289-0.033c6.042-0.671,13.564-1.51,16.788,1.114l0.244,0.199h13.658l0.245-0.199c3.27-2.661,11.225-1.75,17.033-1.085    l0.041,0.003c5.984,0.686,21.261,1.624,21.415,1.634L97,82.999V23.531h-6.756l-0.902-1.116l-0.326-0.058    c-0.06-0.012-3.776-0.664-8.869-1.169 M9.22,28.248l2.205-2.731v46.195L9.22,75.389V28.248z M48.039,77.234    c-0.555-0.188-6.461-2.119-14.894-2.119c-2.742,0-5.474,0.21-8.119,0.623c-8.626,1.347-13.231,1.617-15.349,1.643l2.742-4.571    l0.009,0.016c0.046-0.02,4.729-2.076,20.337-2.114c10.021-0.024,14.288,4.07,15.999,6.714L48.039,77.234z M49.612,76.161    c-2.095-2.925-6.767-6.867-16.759-6.867h-0.091c-12.153,0.03-17.827,1.27-19.919,1.894V24.008    c2.188-0.357,10.539-1.63,18.759-1.63c10.352,0,16.57,1.976,18.01,5.714V76.161z M51.383,28.092    c1.438-3.738,7.658-5.714,18.009-5.714c8.221,0,16.573,1.273,18.761,1.63v47.166c-2.151-0.61-7.833-1.791-19.834-1.879    c-0.101-0.001-0.197-0.002-0.297-0.002c-10.104,0-14.643,3.796-16.639,6.713V28.092z M75.968,75.738    c-2.646-0.413-5.377-0.623-8.118-0.623c-8.433,0-14.34,1.932-14.894,2.119l-0.774,0.202c1.571-2.642,5.705-6.81,16.126-6.725    c14.363,0.105,19.537,1.816,20.26,2.085l2.751,4.584C89.191,77.353,84.597,77.085,75.968,75.738z M91.775,75.389l-2.206-3.677    V25.517l2.206,2.731V75.389z"/><g><g><path d="M46.551,32.671c-7.224-5.899-29.768-1.906-29.994-1.865l-0.225-1.423c0.95-0.172,23.352-4.136,31.034,2.141      L46.551,32.671L46.551,32.671z"/></g><g><path d="M46.551,35.842c-7.224-5.899-29.768-1.906-29.994-1.865l-0.225-1.423c0.95-0.172,23.352-4.135,31.034,2.141      L46.551,35.842L46.551,35.842z"/></g><g><path d="M46.551,39.013c-7.224-5.9-29.768-1.906-29.994-1.866l-0.225-1.423c0.95-0.172,23.352-4.135,31.034,2.141L46.551,39.013      L46.551,39.013z"/></g><g><path d="M46.551,42.184c-7.224-5.9-29.768-1.907-29.994-1.866l-0.225-1.423c0.95-0.172,23.352-4.135,31.034,2.141L46.551,42.184      L46.551,42.184z"/></g><g><path d="M46.551,45.354c-7.224-5.899-29.768-1.906-29.994-1.866l-0.225-1.423c0.95-0.172,23.352-4.135,31.034,2.141      L46.551,45.354L46.551,45.354z"/></g><g><path d="M46.551,48.525c-7.224-5.899-29.768-1.906-29.994-1.866l-0.225-1.423c0.95-0.172,23.352-4.135,31.034,2.141      L46.551,48.525L46.551,48.525z"/></g><g><path d="M46.551,51.696c-7.224-5.9-29.768-1.906-29.994-1.866l-0.225-1.423c0.95-0.171,23.352-4.134,31.034,2.142L46.551,51.696      L46.551,51.696z"/></g><g><path d="M46.551,54.867c-7.224-5.9-29.768-1.907-29.994-1.866l-0.225-1.423c0.95-0.172,23.352-4.134,31.034,2.142L46.551,54.867      L46.551,54.867z"/></g><g><path d="M46.551,58.038c-7.224-5.9-29.768-1.906-29.994-1.866l-0.225-1.423c0.95-0.172,23.352-4.134,31.034,2.142L46.551,58.038      L46.551,58.038z"/></g><g><path d="M46.551,61.209c-7.224-5.9-29.768-1.907-29.994-1.866l-0.225-1.423c0.95-0.172,23.352-4.135,31.034,2.141L46.551,61.209      L46.551,61.209z"/></g><g><path d="M46.551,64.379c-7.224-5.898-29.768-1.906-29.994-1.865l-0.225-1.423c0.95-0.172,23.352-4.135,31.034,2.141      L46.551,64.379L46.551,64.379z"/></g><g><path d="M46.551,67.551c-7.224-5.9-29.768-1.906-29.994-1.866l-0.225-1.423c0.95-0.172,23.352-4.135,31.034,2.141L46.551,67.551      L46.551,67.551z"/></g></g><g><g><path d="M54.576,32.671c7.224-5.899,29.768-1.906,29.994-1.865l0.225-1.423c-0.95-0.172-23.352-4.136-31.034,2.141      L54.576,32.671L54.576,32.671z"/></g><g><path d="M54.576,35.842c7.224-5.899,29.768-1.906,29.994-1.865l0.225-1.423c-0.95-0.172-23.352-4.135-31.034,2.141      L54.576,35.842L54.576,35.842z"/></g><g><path d="M54.576,39.013c7.224-5.9,29.768-1.906,29.994-1.866l0.225-1.423c-0.95-0.172-23.352-4.135-31.034,2.141L54.576,39.013      L54.576,39.013z"/></g><g><path d="M54.576,42.184c7.224-5.9,29.768-1.907,29.994-1.866l0.225-1.423c-0.95-0.172-23.352-4.135-31.034,2.141L54.576,42.184      L54.576,42.184z"/></g><g><path d="M54.576,45.354c7.224-5.899,29.768-1.906,29.994-1.866l0.225-1.423c-0.95-0.172-23.352-4.135-31.034,2.141      L54.576,45.354L54.576,45.354z"/></g><g><path d="M54.576,48.525C61.8,42.626,84.344,46.62,84.57,46.66l0.225-1.423c-0.95-0.172-23.352-4.135-31.034,2.141L54.576,48.525      L54.576,48.525z"/></g><g><path d="M54.576,51.696c7.224-5.9,29.768-1.906,29.994-1.866l0.225-1.423c-0.95-0.171-23.352-4.134-31.034,2.142L54.576,51.696      L54.576,51.696z"/></g><g><path d="M54.576,54.867c7.224-5.9,29.768-1.907,29.994-1.866l0.225-1.423c-0.95-0.172-23.352-4.134-31.034,2.142L54.576,54.867      L54.576,54.867z"/></g><g><path d="M54.576,58.038c7.224-5.9,29.768-1.906,29.994-1.866l0.225-1.423c-0.95-0.172-23.352-4.134-31.034,2.142L54.576,58.038      L54.576,58.038z"/></g><g><path d="M54.576,61.209c7.224-5.9,29.768-1.907,29.994-1.866l0.225-1.423c-0.95-0.172-23.352-4.135-31.034,2.141L54.576,61.209      L54.576,61.209z"/></g><g><path d="M54.576,64.379c7.224-5.898,29.768-1.906,29.994-1.865l0.225-1.423c-0.95-0.172-23.352-4.135-31.034,2.141      L54.576,64.379L54.576,64.379z"/></g><g><path d="M54.576,67.551c7.224-5.9,29.768-1.906,29.994-1.866l0.225-1.423c-0.95-0.172-23.352-4.135-31.034,2.141L54.576,67.551      L54.576,67.551z"/></g></g></g></g><!--text x="0" y="115" fill="#000000" font-size="5px" font-weight="bold" font-family="'Helvetica Neue', Helvetica, Arial-Unicode, Arial, Sans-serif">Created by Jon Testa</text><text x="0" y="120" fill="#000000" font-size="5px" font-weight="bold" font-family="'Helvetica Neue', Helvetica, Arial-Unicode, Arial, Sans-serif">from the Noun Project</text--></svg>